<svg xmlns="http://www.w3.org/2000/svg" viewBox="0 0 1600 1000" role="img" aria-labelledby="title desc">
  <title id="title">Professional banking service illustration</title>
  <desc id="desc">Modern BPR office and customer service atmosphere with financial dashboard elements.</desc>
  <defs>
    <linearGradient id="sky" x1="0" x2="1" y1="0" y2="1">
      <stop offset="0" stop-color="#eaf6ff"/>
      <stop offset="0.45" stop-color="#d8edf8"/>
      <stop offset="1" stop-color="#f7f1dc"/>
    </linearGradient>
    <linearGradient id="glass" x1="0" x2="1" y1="0" y2="1">
      <stop offset="0" stop-color="#eef9ff" stop-opacity="0.92"/>
      <stop offset="1" stop-color="#7eb8d8" stop-opacity="0.82"/>
    </linearGradient>
    <linearGradient id="navy" x1="0" x2="1" y1="0" y2="1">
      <stop offset="0" stop-color="#0f6d9e"/>
      <stop offset="1" stop-color="#0b2d49"/>
    </linearGradient>
    <filter id="shadow" x="-20%" y="-20%" width="140%" height="140%">
      <feDropShadow dx="0" dy="18" stdDeviation="22" flood-color="#0b2d49" flood-opacity="0.18"/>
    </filter>
  </defs>
  <rect width="1600" height="1000" fill="url(#sky)"/>
  <path d="M0 650 C260 560 410 740 650 642 C900 540 1020 580 1230 520 C1380 477 1490 486 1600 455 L1600 1000 L0 1000 Z" fill="#d9ebdc"/>
  <path d="M0 720 C250 655 470 805 720 710 C980 612 1170 700 1600 615 L1600 1000 L0 1000 Z" fill="#c8e2cf"/>
  <g filter="url(#shadow)">
    <path d="M275 345 L815 178 L1355 345 L1355 760 L275 760 Z" fill="#f9fbfd"/>
    <path d="M275 345 L815 178 L1355 345 L1355 410 L275 410 Z" fill="url(#navy)"/>
    <path d="M365 450 H620 V760 H365 Z" fill="url(#glass)"/>
    <path d="M670 450 H925 V760 H670 Z" fill="url(#glass)"/>
    <path d="M975 450 H1265 V760 H975 Z" fill="url(#glass)"/>
    <path d="M770 610 H860 V760 H770 Z" fill="#0b2d49"/>
    <path d="M790 645 H840 V760 H790 Z" fill="#143f62"/>
    <rect x="385" y="470" width="92" height="98" rx="8" fill="#ffffff" opacity="0.34"/>
    <rect x="508" y="470" width="92" height="98" rx="8" fill="#ffffff" opacity="0.34"/>
    <rect x="690" y="470" width="92" height="98" rx="8" fill="#ffffff" opacity="0.34"/>
    <rect x="813" y="470" width="92" height="98" rx="8" fill="#ffffff" opacity="0.34"/>
    <rect x="1002" y="470" width="100" height="98" rx="8" fill="#ffffff" opacity="0.34"/>
    <rect x="1135" y="470" width="100" height="98" rx="8" fill="#ffffff" opacity="0.34"/>
    <rect x="332" y="385" width="966" height="34" fill="#c9952c"/>
    <rect x="325" y="760" width="980" height="46" rx="4" fill="#e8edf2"/>
  </g>
  <g transform="translate(1020 610)" filter="url(#shadow)">
    <rect x="0" y="0" width="350" height="225" rx="18" fill="#ffffff"/>
    <rect x="26" y="28" width="140" height="14" rx="7" fill="#0f6d9e"/>
    <rect x="26" y="62" width="292" height="10" rx="5" fill="#d8e0ea"/>
    <rect x="26" y="92" width="92" height="70" rx="10" fill="#eef8ff"/>
    <rect x="137" y="92" width="82" height="70" rx="10" fill="#fff8e6"/>
    <rect x="238" y="92" width="80" height="70" rx="10" fill="#e7f8ef"/>
    <path d="M40 194 L92 154 L145 174 L206 127 L286 168" fill="none" stroke="#0f6d9e" stroke-width="10" stroke-linecap="round" stroke-linejoin="round"/>
  </g>
  <g transform="translate(190 650)" filter="url(#shadow)">
    <circle cx="82" cy="56" r="42" fill="#c9952c"/>
    <path d="M35 160 C42 115 65 96 106 96 C147 96 171 115 178 160 L178 216 L35 216 Z" fill="#0b2d49"/>
    <circle cx="198" cy="68" r="38" fill="#86b7d4"/>
    <path d="M154 168 C160 125 181 109 215 109 C250 109 270 126 276 168 L276 216 L154 216 Z" fill="#0f6d9e"/>
    <rect x="300" y="70" width="220" height="126" rx="14" fill="#ffffff"/>
    <rect x="324" y="97" width="142" height="12" rx="6" fill="#0f6d9e"/>
    <rect x="324" y="130" width="172" height="10" rx="5" fill="#d8e0ea"/>
    <rect x="324" y="158" width="116" height="10" rx="5" fill="#d8e0ea"/>
  </g>
</svg>
